<svg width="512" height="512" viewBox="0 0 512 512" fill="none" xmlns="http://www.w3.org/2000/svg">
<path fill-rule="evenodd" clip-rule="evenodd" d="M407.083 133.093C407.184 155.671 370.92 187.197 360.42 197.461C358.554 199.287 307.677 250.199 305.948 254.385C304.362 258.893 287.111 276.746 282.728 281.391C278.21 286.181 274.571 288.665 270.459 293.243L259.136 306.128C255.787 310.451 251.045 314.012 247.143 318.148C230.325 335.977 220.521 337.893 196.626 340.058C198.623 345.607 203.424 348.397 207.148 352.618C209.452 355.23 210.559 356.421 213.013 358.855C217.444 363.249 216.113 364.482 216.139 364.186C216.153 364.027 216.198 364.736 216.038 364.928C222.027 370.437 236.04 388.059 242.579 390.878C249.243 386.097 258.388 375.607 264.491 369.23L328.611 303.106C355.477 275.976 386.001 244.28 414.751 214.371C428.72 199.838 441.891 186.023 450.238 163.115C459.146 138.668 459.73 112.163 453.204 86.1838C445.769 56.5919 421.307 27.5514 395.404 13.8065C389.977 10.9262 362.904 0.458579 357.878 1.89426L354.174 3.13291C368.324 5.83398 389.282 21.9899 397.208 33.7952C409.389 51.9383 414.654 65.8218 414.586 90.5651C414.514 116.002 415.437 104.362 411.231 123.563C409.308 132.343 411.092 129.858 407.083 133.093Z" fill="#EBA14B"/>
<path fill-rule="evenodd" clip-rule="evenodd" d="M185.269 63.7999C196.394 65.6584 206.558 62.3167 213.814 58.2285C222.237 53.4818 225.601 48.5648 233.218 43.7786L232.643 39.2913C224.051 30.9614 218.074 25.0592 207.564 18.264C139.664 -25.6402 47.9452 14.0619 31.8112 94.3275C29.3871 106.388 25.4032 127.204 31.454 137.675C36.7228 130.628 36.7913 124.613 49.4207 113.339C56.6671 106.868 68.3508 102.425 81.0258 101.451C87.7265 67.5773 122.24 44.7746 156.824 51.057C169.818 53.4165 174.697 59.1216 185.269 63.7999Z" fill="#5091BB"/>
<path fill-rule="evenodd" clip-rule="evenodd" d="M243.739 48.8316C237.057 58.8467 216.926 76.2125 196.735 70.1183C194.9 71.9579 195.368 70.0163 195.646 73.763C200.695 76.9333 222.182 110.526 258.33 97.9468C279.262 90.6624 291.309 66.9608 310.498 57.1338C354.412 34.642 415.462 68.046 407.083 133.093C411.092 129.859 409.308 132.343 411.231 123.563C415.437 104.362 414.514 116.003 414.586 90.5654C414.654 65.8221 409.389 51.9386 397.208 33.7955C389.282 21.9902 368.324 5.83429 354.174 3.13322C355.187 2.94807 356.183 2.86292 357.17 2.82232C358.857 2.75499 359.806 2.36092 361.495 2.27676C350.791 -1.32433 334.122 0.0737289 323.629 1.53813C310.774 3.33224 302.32 6.64223 291.231 11.383C262.576 23.6298 254.293 43.0928 243.739 48.8316Z" fill="#7ABE85"/>
<path fill-rule="evenodd" clip-rule="evenodd" d="M117.048 239.186C112.558 241.207 116.711 240.324 112.308 240.035C103.604 225.929 61.0164 192.012 54.8376 174.58C52.0752 166.787 48.3672 144.114 61.2684 146.304C68.1864 163.527 46.8738 157.526 84.6746 195.322L112.408 224.249C115.8 227.547 119.985 229.994 120.646 235.669L127.265 228.491C129.952 226.006 131.704 224.395 134.18 222.131L160.337 195.231C164.22 191.28 171.149 186.208 173.425 180.976C170.106 175.392 165.652 172.6 160.826 167.397L123.294 128.972C115.217 120.122 104.91 111.812 90.5269 110.826C76.814 109.886 60.556 118.3 53.6916 124.847C32.2243 145.319 36.8511 179.056 54.9974 197.237L106.253 248.639C110.892 246.374 114.042 243.503 117.048 239.186Z" fill="#5091BB"/>
<path fill-rule="evenodd" clip-rule="evenodd" d="M128.492 242.126C133.928 243.465 131.885 243.276 139.008 250.719C141.796 253.632 145.034 257.328 147.712 260.092C158.143 270.861 182.706 300.165 195.69 302.501C201.164 303.487 210.046 301.43 212.365 304.097C215.997 309.852 208.807 312.169 202.778 312.365C179.072 313.134 160.497 288.514 142.391 270.24C138.83 266.647 135.818 263.527 132.401 259.725C130.603 257.724 129.826 256.595 127.844 254.66C124.229 251.134 124.328 252.849 122.949 247.787L113.891 256.971L162.917 308.8C171.169 316.161 181.176 323.94 196.772 325.678C236.977 330.162 269.069 277.507 233.018 239.956C229.046 235.818 184.822 190.94 181.051 189.487C165.404 204.147 147.594 224.371 135.548 235.568L128.492 242.126Z" fill="#7ABE85"/>
<path fill-rule="evenodd" clip-rule="evenodd" d="M462.853 448.57C462.133 449.855 462.996 449.15 457.942 449.486C447.97 449.956 434.696 446.245 435.356 461.207C435.418 462.698 435.588 464.149 436.116 465.401C437.886 473.366 449.488 470.732 456.56 471.326C458.281 471.471 462.072 470.938 462.471 473.582C462.818 482.27 461.11 496.172 465.342 501.357C469.914 506.956 484.194 505.398 486.081 497.175C486.601 489.337 486.544 481.409 485.866 471.632C490.3 470.685 491.615 470.926 496.067 471.238C502.691 470.97 506.467 470.659 507.685 470.233C514.496 465.737 513.4 450.776 503.288 449.724L487.63 448.933C485.386 435.64 491.768 417.728 475.377 417.372C467.189 417.194 463.721 420.544 462.961 427.405C462.437 432.123 462.323 444.326 462.853 448.57Z" fill="#E59C4C"/>
<path fill-rule="evenodd" clip-rule="evenodd" d="M230.52 189.437C235.241 188.428 231.079 190.452 235.021 187.385C235.974 178.242 249.992 163.868 258.672 162.124C262.795 158.403 261.778 159.487 262.234 157.495C262.75 128.458 264.947 123.475 246.353 123.404C222.136 123.312 235.244 140.916 231.099 158.448C220.733 159.736 202.787 155.483 197.76 162.655C194.589 168.938 195.83 185.105 200.748 187.972C205.668 190.841 223.049 188.953 230.52 189.437Z" fill="#296E72"/>
<path fill-rule="evenodd" clip-rule="evenodd" d="M235.021 187.384C236.349 197.769 231.493 210.631 237.203 220.218C243.455 222.138 252.373 221.697 257.346 219.641C261.835 209.726 255.3 194.488 261.689 186.752L291.009 186.13C297.862 177.755 295.404 166.958 293.941 164.815C288.413 158.999 268.709 160.981 258.673 162.123C249.993 163.867 235.974 178.242 235.021 187.384Z" fill="#EEA14D"/>
<path fill-rule="evenodd" clip-rule="evenodd" d="M117.048 239.186L120.646 235.668C119.985 229.994 115.801 227.547 112.408 224.249L84.6747 195.322C46.8739 157.526 68.1864 163.527 61.2685 146.303C48.3673 144.114 52.0753 166.787 54.8377 174.579C61.0165 192.012 103.604 225.928 112.308 240.035C116.711 240.324 112.558 241.207 117.048 239.186Z" fill="#94BDD4"/>
<path fill-rule="evenodd" clip-rule="evenodd" d="M122.949 247.788C124.328 252.85 124.229 251.135 127.844 254.662C129.826 256.597 130.603 257.725 132.401 259.726C135.818 263.529 138.83 266.648 142.391 270.242C160.496 288.515 179.072 313.136 202.778 312.367C208.807 312.171 215.997 309.854 212.365 304.099C210.045 301.432 201.164 303.488 195.69 302.503C182.706 300.166 158.143 270.862 147.712 260.094C145.034 257.329 141.796 253.633 139.008 250.72C131.885 243.277 133.928 243.467 128.491 242.128L122.949 247.788Z" fill="#B3DCB8"/>
<path fill-rule="evenodd" clip-rule="evenodd" d="M185.269 63.7984L195.646 73.7621C195.368 70.0154 194.901 71.9571 196.735 70.1174C216.927 76.2116 237.058 58.8458 243.739 48.8307C240.718 48.2267 243.542 49.4307 241.206 47.2514C238.861 45.0632 237.509 41.9503 232.643 39.2898L233.219 43.7771C225.601 48.5633 222.237 53.4803 213.814 58.227C206.559 62.3152 196.394 65.6569 185.269 63.7984Z" fill="#3B7B97"/>
<path fill-rule="evenodd" clip-rule="evenodd" d="M258.672 162.124C268.709 160.981 288.413 158.999 293.941 164.815C295.403 166.959 297.861 177.756 291.009 186.13L261.689 186.752C258.56 190.217 258.463 196.3 258.45 202.016C258.433 209.729 259.069 217.024 257.346 218.665C252.373 220.723 243.454 222.138 237.203 220.219C231.493 210.631 236.436 197.128 235.108 186.742C235.105 186.069 235.966 188.283 231.246 189.292C233.442 197.132 228.515 215.7 234.471 221.864C238.633 226.171 258.393 227.276 261.341 218.656L262.866 190.62C266.383 188.444 264.202 189.313 269.229 189.054C286.985 188.14 298.401 194.82 297.947 173.725C297.38 147.422 274.468 164.727 261.73 158.709C261.485 158.709 262.142 158.641 261.944 158.972C261.744 159.304 260.689 160.039 258.672 162.124Z" fill="#E0AC53"/>
<path fill-rule="evenodd" clip-rule="evenodd" d="M216.039 364.929C216.199 364.737 216.154 364.028 216.139 364.186C216.113 364.482 217.445 363.249 213.013 358.855C210.56 356.421 209.452 355.23 207.148 352.618C203.424 348.397 198.624 345.607 196.626 340.059C214.738 338.418 224.754 336.919 235.863 328.528C239.411 325.848 245.355 321.39 249.426 317.073C252.873 313.717 255.787 310.451 259.136 306.128L270.46 293.243C274.572 288.665 278.21 286.181 282.729 281.392C287.112 276.746 304.363 258.893 305.949 254.385C308.219 251.381 297.589 261.768 293.105 266.425L256.265 304.347C222.63 341.516 221.699 333.302 188.663 336.745L216.039 364.929Z" fill="#E09D2A"/>
<path fill-rule="evenodd" clip-rule="evenodd" d="M440.914 471.517C443.643 471.755 447.356 471.391 451.053 471.26C455.364 471.106 459.653 471.268 462.336 473.064C461.261 468.879 460.737 469.704 457.163 469.155C449.684 467.808 439.291 472.203 436.168 464.808C435.638 463.555 435.47 462.105 435.408 460.615C434.904 448.531 443.783 450.145 452.406 450.416C454.445 450.481 454.705 450.971 456.556 450.555C458.875 450.445 459.512 450.494 460.095 450.435C463.173 450.127 461.123 451.602 462.853 448.569C458.024 448.918 451.744 448.841 446.202 448.894C441.407 448.939 438.089 449.745 435.698 452.2C431.046 458.428 434.265 470.421 440.914 471.517Z" fill="#EBBA65"/>
<path fill-rule="evenodd" clip-rule="evenodd" d="M484.776 499.762C488.144 496.204 486.045 484.733 488.021 473.276C493.032 472.954 497.092 472.429 500.473 472.51C508.619 472.704 509.388 471.206 511.423 464.869C507.763 469.728 508.543 470.19 501.088 470.435C495.795 470.439 491.356 470.372 485.866 471.631L485.653 485.921L484.776 499.762Z" fill="#BF944A"/>
<path d="M75.407 498.232L70.3475 484.956H27.2502L22.1897 498.504C20.2151 503.798 18.5362 507.369 17.1302 509.218C15.748 511.064 13.4519 512 10.2678 512C7.57781 512 5.18351 511.015 3.10971 509.045C1.0369 507.074 0 504.834 0 502.345C0 500.892 0.24707 499.39 0.715412 497.863C1.20955 496.311 1.99938 494.193 3.10971 491.434L30.212 422.764C31.0019 420.794 31.9157 418.429 33.0012 415.671C34.0878 412.887 35.2477 410.597 36.4821 408.774C37.7164 406.952 39.3199 405.474 41.3193 404.341C43.3187 403.208 45.7874 402.642 48.7244 402.642C51.7359 402.642 54.2284 403.208 56.2278 404.341C58.2272 405.474 59.8317 406.927 61.066 408.701C62.3004 410.474 63.3373 412.394 64.1758 414.439C65.0152 416.484 66.1017 419.217 67.3847 422.616L95.0794 490.867C97.2514 496.064 98.3379 499.833 98.3379 502.197C98.3379 504.637 97.3258 506.902 95.2768 508.947C93.2278 510.99 90.7353 512 87.8469 512C86.169 512 84.7123 511.705 83.5038 511.089C82.3181 510.498 81.306 509.685 80.4675 508.651C79.6529 507.617 78.7886 506.015 77.8509 503.897C76.8885 501.754 76.0986 499.857 75.407 498.232ZM32.903 468.848H64.5717L48.6014 425.252L32.903 468.848ZM166.784 500.744V498.799C164.143 501.828 161.527 504.291 158.936 506.188C156.368 508.084 153.555 509.538 150.543 510.522C147.532 511.508 144.249 512 140.67 512C135.955 512 131.586 510.99 127.563 508.995C123.539 507 120.034 504.168 117.097 500.449C114.159 496.754 111.939 492.395 110.408 487.395C108.902 482.394 108.137 476.976 108.137 471.163C108.137 458.848 111.149 449.242 117.171 442.37C123.194 435.498 131.142 432.05 140.966 432.05C146.668 432.05 151.456 433.036 155.357 434.981C159.256 436.927 163.082 439.932 166.784 443.995V414.907C166.784 410.868 167.599 407.814 169.203 405.745C170.833 403.675 173.128 402.642 176.115 402.642C179.101 402.642 181.397 403.602 183.025 405.498C184.631 407.395 185.445 410.203 185.445 413.897V500.744C185.445 504.488 184.581 507.321 182.853 509.192C181.101 511.064 178.855 512 176.115 512C173.424 512 171.178 511.015 169.426 509.069C167.673 507.124 166.784 504.341 166.784 500.744ZM127.982 471.829C127.982 477.173 128.822 481.705 130.476 485.474C132.129 489.217 134.4 492.024 137.313 493.921C140.201 495.819 143.36 496.779 146.767 496.779C150.247 496.779 153.406 495.867 156.269 494.069C159.133 492.272 161.428 489.512 163.132 485.793C164.835 482.05 165.699 477.419 165.699 471.829C165.699 466.607 164.835 462.099 163.132 458.331C161.428 454.537 159.108 451.656 156.195 449.661C153.283 447.666 150.099 446.68 146.618 446.68C143.015 446.68 139.781 447.69 136.942 449.735C134.104 451.779 131.908 454.709 130.327 458.527C128.772 462.37 127.982 466.804 127.982 471.829ZM260.359 476.828H221.73C221.779 481.31 222.692 485.252 224.444 488.676C226.197 492.099 228.542 494.661 231.454 496.385C234.367 498.133 237.6 498.996 241.106 498.996C243.475 498.996 245.623 498.725 247.572 498.158C249.548 497.617 251.423 496.754 253.25 495.572C255.102 494.39 256.78 493.134 258.31 491.779C259.865 490.424 261.864 488.601 264.332 486.287C265.345 485.424 266.776 484.981 268.653 484.981C270.677 484.981 272.33 485.548 273.589 486.656C274.823 487.739 275.464 489.316 275.464 491.335C275.464 493.109 274.749 495.178 273.367 497.567C271.96 499.931 269.862 502.223 267.023 504.39C264.209 506.582 260.68 508.405 256.409 509.833C252.14 511.286 247.227 512 241.698 512C229.011 512 219.162 508.379 212.128 501.163C205.093 493.947 201.588 484.168 201.588 471.804C201.588 465.991 202.452 460.572 204.18 455.597C205.908 450.621 208.45 446.361 211.757 442.789C215.09 439.243 219.187 436.508 224.05 434.612C228.912 432.716 234.318 431.754 240.243 431.754C247.967 431.754 254.583 433.38 260.088 436.632C265.616 439.882 269.738 444.07 272.503 449.242C275.243 454.391 276.624 459.636 276.624 464.981C276.624 469.932 275.194 473.158 272.355 474.636C269.516 476.089 265.517 476.828 260.359 476.828ZM221.73 465.597H257.521C257.051 458.873 255.225 453.848 252.065 450.498C248.906 447.174 244.758 445.498 239.601 445.498C234.663 445.498 230.64 447.197 227.48 450.573C224.321 453.971 222.396 458.971 221.73 465.597ZM312.835 483.578V500.03C312.835 504.021 311.898 507 310.022 508.995C308.145 510.99 305.776 512 302.888 512C300.049 512 297.705 510.99 295.878 508.97C294.051 506.951 293.138 503.971 293.138 500.03V445.178C293.138 436.336 296.347 431.903 302.739 431.903C305.998 431.903 308.367 432.937 309.799 435.006C311.255 437.074 312.046 440.154 312.194 444.192C314.538 440.154 316.957 437.074 319.45 435.006C321.943 432.937 325.251 431.903 329.397 431.903C333.545 431.903 337.567 432.937 341.468 435.006C345.368 437.074 347.318 439.834 347.318 443.257C347.318 445.671 346.504 447.641 344.825 449.217C343.171 450.793 341.369 451.558 339.444 451.558C338.728 451.558 336.975 451.114 334.211 450.227C331.421 449.341 328.979 448.897 326.855 448.897C323.968 448.897 321.622 449.661 319.771 451.164C317.945 452.691 316.513 454.932 315.501 457.911C314.489 460.892 313.798 464.438 313.403 468.552C313.032 472.665 312.835 477.665 312.835 483.578ZM409.544 476.828H370.915C370.965 481.31 371.877 485.252 373.63 488.676C375.382 492.099 377.728 494.661 380.64 496.385C383.553 498.133 386.786 498.996 390.292 498.996C392.661 498.996 394.808 498.725 396.758 498.158C398.733 497.617 400.609 496.754 402.436 495.572C404.286 494.39 405.965 493.134 407.495 491.779C409.051 490.424 411.049 488.601 413.518 486.287C414.53 485.424 415.962 484.981 417.837 484.981C419.862 484.981 421.516 485.548 422.774 486.656C424.008 487.739 424.65 489.316 424.65 491.335C424.65 493.109 423.935 495.178 422.553 497.567C421.146 499.931 419.047 502.223 416.209 504.39C413.394 506.582 409.866 508.405 405.595 509.833C401.324 511.286 396.413 512 390.883 512C378.197 512 368.348 508.379 361.313 501.163C354.278 493.947 350.773 484.168 350.773 471.804C350.773 465.991 351.638 460.572 353.365 455.597C355.093 450.621 357.636 446.361 360.943 442.789C364.275 439.243 368.373 436.508 373.235 434.612C378.098 432.716 383.504 431.754 389.427 431.754C397.153 431.754 403.768 433.38 409.272 436.632C414.802 439.882 418.924 444.07 421.688 449.242C424.428 454.391 425.81 459.636 425.81 464.981C425.81 469.932 424.378 473.158 421.54 474.636C418.702 476.089 414.703 476.828 409.544 476.828ZM370.915 465.597H406.705C406.236 458.873 404.41 453.848 401.25 450.498C398.091 447.174 393.945 445.498 388.785 445.498C383.849 445.498 379.825 447.197 376.666 450.573C373.507 453.971 371.582 458.971 370.915 465.597Z" fill="#296E72"/>
</svg>
