<svg width="1516" height="587" viewBox="0 0 1516 587" fill="none" xmlns="http://www.w3.org/2000/svg">
<path fill-rule="evenodd" clip-rule="evenodd" d="M568.226 199.64C568.378 233.506 513.981 280.795 498.231 296.192C495.433 298.93 419.116 375.299 416.524 381.577C414.145 388.339 388.268 415.118 381.694 422.087C374.916 429.271 369.458 432.997 363.29 439.865L346.305 459.191C341.282 465.676 334.169 471.018 328.317 477.222C303.089 503.966 288.384 506.839 252.541 510.088C255.537 518.411 262.737 522.596 268.323 528.927C271.779 532.845 273.44 534.632 277.121 538.282C283.768 544.874 281.771 546.723 281.809 546.279C281.832 546.041 281.899 547.104 281.659 547.393C290.641 555.656 311.662 582.088 321.47 586.316C331.466 579.146 345.183 563.41 354.338 553.846L450.518 454.659C490.817 413.964 536.603 366.421 579.728 321.556C600.682 299.756 620.438 279.035 632.959 244.672C646.32 208.003 647.196 168.244 637.407 129.276C626.255 84.8878 589.562 41.3271 550.708 20.7097C542.567 16.3893 501.958 0.687868 494.419 2.84139L488.863 4.69937C510.087 8.75097 541.525 32.9848 553.414 50.6928C571.685 77.9074 579.583 98.7327 579.48 135.848C579.373 174.004 580.757 156.542 574.448 185.345C571.563 198.514 574.239 194.787 568.226 199.64Z" fill="#EBA14B"/>
<path fill-rule="evenodd" clip-rule="evenodd" d="M235.504 95.6994C252.192 98.4871 267.439 93.4746 278.322 87.3422C290.957 80.2222 296.002 72.8468 307.429 65.6674L306.565 58.9365C293.678 46.4416 284.713 37.5884 268.948 27.3955C167.097 -38.4608 29.5193 21.0923 5.31835 141.491C1.68226 159.582 -4.29357 190.805 4.78254 206.512C12.6858 195.941 12.7885 186.918 31.7325 170.008C42.6021 160.302 60.1278 153.637 79.1403 152.175C89.1912 101.365 140.961 67.1615 192.837 76.585C212.329 80.1242 219.647 88.6819 235.504 95.6994Z" fill="#5091BB"/>
<path fill-rule="evenodd" clip-rule="evenodd" d="M323.21 73.2473C313.187 88.27 282.991 114.319 252.704 105.177C249.952 107.937 250.653 105.024 251.07 110.644C258.644 115.4 290.875 165.79 345.096 146.92C376.494 135.994 394.565 100.441 423.348 85.7007C489.219 51.9631 580.794 102.069 568.226 199.64C574.239 194.788 571.563 198.514 574.447 185.345C580.757 156.543 579.372 174.004 579.48 135.848C579.582 98.7332 571.685 77.9079 553.414 50.6932C541.525 32.9853 510.087 8.75143 488.863 4.69983C490.381 4.4221 491.875 4.29438 493.356 4.23348C495.887 4.13249 497.311 3.54138 499.844 3.41514C483.788 -1.9865 458.784 0.110593 443.045 2.30719C423.763 4.99836 411.082 9.96335 394.448 17.0744C351.465 35.4448 339.04 64.6392 323.21 73.2473Z" fill="#7ABE85"/>
<path fill-rule="evenodd" clip-rule="evenodd" d="M133.173 358.78C126.438 361.811 132.668 360.486 126.063 360.052C113.007 338.893 49.1256 288.018 39.8575 261.869C35.7139 250.181 30.1518 216.172 49.5037 219.455C59.8806 245.29 27.9118 236.289 84.6129 292.983L126.213 336.374C131.302 341.321 137.578 344.991 138.57 353.503L148.498 342.737C152.529 339.009 155.157 336.592 158.871 333.196L198.106 292.846C203.931 286.92 214.325 279.312 217.739 271.464C212.76 263.087 206.079 258.901 198.84 251.096L142.542 193.459C130.427 180.182 114.965 167.717 93.3914 166.24C72.822 164.829 48.435 177.45 38.1384 187.27C5.93746 217.979 12.8778 268.584 40.0971 295.855L116.981 372.959C123.939 369.561 128.664 365.255 133.173 358.78Z" fill="#5091BB"/>
<path fill-rule="evenodd" clip-rule="evenodd" d="M150.338 363.19C158.493 365.198 155.428 364.914 166.113 376.079C170.294 380.448 175.152 385.992 179.17 390.139C194.815 406.292 231.66 450.248 251.135 453.753C259.347 455.23 272.669 452.146 276.149 456.147C281.596 464.779 270.812 468.254 261.768 468.548C226.21 469.702 198.346 432.771 171.187 405.361C165.846 399.971 161.328 395.291 156.202 389.588C153.505 386.586 152.34 384.893 149.366 381.991C143.944 376.701 144.093 379.273 142.024 371.681L128.437 385.458L201.976 463.2C214.355 474.242 229.365 485.91 252.759 488.518C313.067 495.243 361.204 416.26 307.128 359.935C301.17 353.728 234.833 286.41 229.177 284.231C205.707 306.221 178.992 336.558 160.924 353.352L150.338 363.19Z" fill="#7ABE85"/>
<path fill-rule="evenodd" clip-rule="evenodd" d="M303.382 284.155C310.462 282.642 304.22 285.678 310.133 281.078C311.562 267.364 332.59 245.802 345.61 243.186C351.794 237.605 350.269 239.231 350.952 236.243C351.726 192.687 355.023 185.213 327.13 185.106C290.805 184.968 310.468 211.374 304.25 237.672C288.701 239.604 261.782 233.225 254.242 243.982C249.485 253.407 251.347 277.658 258.723 281.959C266.103 286.261 292.174 283.429 303.382 284.155Z" fill="#296E72"/>
<path fill-rule="evenodd" clip-rule="evenodd" d="M310.133 281.077C312.125 296.653 304.84 315.946 313.406 330.327C322.783 333.207 336.16 332.546 343.62 329.461C350.353 314.589 340.551 291.731 350.135 280.128L394.115 279.195C404.393 266.633 400.707 250.437 398.513 247.222C390.221 238.498 360.665 241.471 345.61 243.185C332.59 245.8 311.562 267.362 310.133 281.077Z" fill="#EEA14D"/>
<path fill-rule="evenodd" clip-rule="evenodd" d="M133.173 358.779L138.57 353.503C137.579 344.991 131.302 341.321 126.213 336.374L84.6133 292.982C27.9122 236.288 59.881 245.29 49.504 219.455C30.1522 216.171 35.7143 250.181 39.8579 261.869C49.126 288.017 113.007 338.893 126.063 360.052C132.668 360.486 126.438 361.811 133.173 358.779Z" fill="#94BDD4"/>
<path fill-rule="evenodd" clip-rule="evenodd" d="M142.024 371.682C144.093 379.275 143.944 376.702 149.366 381.992C152.34 384.894 153.505 386.588 156.202 389.589C161.328 395.292 165.845 399.972 171.187 405.362C198.346 432.773 226.209 469.703 261.768 468.549C270.811 468.255 281.596 464.78 276.149 456.148C272.669 452.147 259.347 455.232 251.135 453.754C231.66 450.249 194.815 406.293 179.169 390.14C175.152 385.994 170.294 380.449 166.113 376.08C155.428 364.916 158.493 365.199 150.338 363.191L142.024 371.682Z" fill="#B3DCB8"/>
<path fill-rule="evenodd" clip-rule="evenodd" d="M235.504 95.698L251.07 110.643C250.653 105.023 249.952 107.936 252.704 105.176C282.991 114.318 313.187 88.2691 323.21 73.2464C318.678 72.3404 322.914 74.1464 319.41 70.8775C315.893 67.5952 313.864 62.9258 306.565 58.9351L307.429 65.6659C296.002 72.8454 290.957 80.2208 278.322 87.3408C267.439 93.4732 252.192 98.4857 235.504 95.698Z" fill="#3B7B97"/>
<path fill-rule="evenodd" clip-rule="evenodd" d="M345.61 243.186C360.665 241.472 390.221 238.499 398.513 247.223C400.707 250.438 404.393 266.634 394.115 279.196L350.135 280.129C345.442 285.325 345.296 294.45 345.276 303.024C345.251 314.594 346.205 325.537 343.62 327.998C336.16 331.084 322.783 333.208 313.406 330.328C304.84 315.947 312.255 295.692 310.264 280.114C310.26 279.104 311.55 282.425 304.47 283.938C307.765 295.698 300.374 323.55 309.308 332.797C315.551 339.257 345.19 340.915 349.612 327.984L351.9 285.93C357.176 282.667 353.905 283.969 361.445 283.582C388.079 282.211 405.203 292.23 404.521 260.588C403.671 221.134 369.303 247.091 350.196 238.064C349.829 238.064 350.815 237.961 350.517 238.459C350.218 238.956 348.634 240.058 345.61 243.186Z" fill="#E0AC53"/>
<path fill-rule="evenodd" clip-rule="evenodd" d="M281.659 547.393C281.899 547.105 281.832 546.041 281.809 546.279C281.771 546.723 283.768 544.874 277.121 538.283C273.44 534.632 271.779 532.846 268.323 528.928C262.737 522.596 255.537 518.411 252.54 510.088C279.708 507.627 294.731 505.378 311.395 492.791C316.718 488.773 325.633 482.085 331.74 475.609C336.91 470.576 341.282 465.676 346.305 459.192L363.29 439.865C369.458 432.998 374.916 429.271 381.694 422.087C388.268 415.119 414.145 388.339 416.524 381.577C419.929 377.071 403.984 392.652 397.258 399.637L341.998 456.52C291.546 512.274 290.149 499.953 240.595 505.117L281.659 547.393Z" fill="#E09D2A"/>
<path fill-rule="evenodd" clip-rule="evenodd" d="M1442.02 269.807C1440.94 271.735 1442.24 270.677 1434.66 271.181C1419.7 271.886 1399.79 266.32 1400.78 288.762C1400.87 290.999 1401.13 293.175 1401.92 295.054C1404.57 307.001 1421.98 303.05 1432.58 303.941C1435.16 304.158 1440.85 303.359 1441.45 307.326C1441.97 320.357 1439.41 341.211 1445.76 348.987C1452.61 357.386 1474.04 355.05 1476.86 342.715C1477.65 330.958 1477.56 319.066 1476.54 304.4C1483.19 302.98 1485.17 303.341 1491.84 303.809C1501.78 303.406 1507.44 302.94 1509.27 302.301C1519.49 295.557 1517.84 273.116 1502.68 271.539L1479.19 270.352C1475.82 250.412 1485.4 223.545 1460.81 223.01C1448.53 222.743 1443.33 227.769 1442.19 238.06C1441.4 245.136 1441.23 263.441 1442.02 269.807Z" fill="#E59C4C"/>
<path fill-rule="evenodd" clip-rule="evenodd" d="M1409.12 304.228C1413.21 304.584 1418.78 304.039 1424.32 303.842C1430.79 303.612 1437.22 303.854 1441.25 306.548C1439.64 300.271 1438.85 301.509 1433.49 300.684C1422.27 298.664 1406.68 305.257 1402 294.164C1401.2 292.286 1400.95 290.11 1400.86 287.875C1400.1 269.749 1413.42 272.17 1426.35 272.577C1429.41 272.674 1429.8 273.409 1432.58 272.785C1436.06 272.62 1437.01 272.693 1437.89 272.605C1442.5 272.143 1439.43 274.355 1442.02 269.806C1434.78 270.33 1425.36 270.214 1417.05 270.293C1409.85 270.361 1404.88 271.57 1401.29 275.252C1394.31 284.594 1399.14 302.584 1409.12 304.228Z" fill="#EBBA65"/>
<path fill-rule="evenodd" clip-rule="evenodd" d="M1474.91 346.594C1479.96 341.258 1476.81 324.051 1479.78 306.866C1487.29 306.383 1493.38 305.596 1498.45 305.718C1510.67 306.007 1511.83 303.762 1514.88 294.255C1509.39 301.544 1510.56 302.236 1499.38 302.605C1491.44 302.611 1484.78 302.51 1476.54 304.399L1476.22 325.833L1474.91 346.594Z" fill="#BF944A"/>
<path d="M837.712 331.386L830.122 311.471H765.476L757.886 331.793C754.924 339.735 752.405 345.092 750.296 347.864C748.223 350.634 744.779 352.038 740.003 352.038C735.968 352.038 732.376 350.56 729.266 347.605C726.156 344.649 724.601 341.288 724.601 337.556C724.601 335.375 724.972 333.122 725.674 330.832C726.415 328.503 727.6 325.327 729.266 321.189L769.919 218.184C771.104 215.228 772.475 211.681 774.103 207.544C775.733 203.369 777.473 199.934 779.324 197.199C781.176 194.465 783.581 192.249 786.58 190.549C789.579 188.85 793.282 188 797.688 188C802.205 188 805.944 188.85 808.943 190.549C811.942 192.249 814.349 194.428 816.2 197.089C818.052 199.748 819.607 202.629 820.865 205.696C822.124 208.763 823.754 212.864 825.678 217.962L867.22 320.338C870.478 328.134 872.108 333.788 872.108 337.333C872.108 340.992 870.59 344.391 867.516 347.458C864.443 350.523 860.704 352.038 856.371 352.038C853.855 352.038 851.67 351.595 849.857 350.671C848.078 349.785 846.56 348.565 845.302 347.013C844.08 345.463 842.784 343.06 841.377 339.883C839.934 336.669 838.749 333.823 837.712 331.386ZM773.956 287.31H821.459L797.503 221.916L773.956 287.31ZM974.778 335.154V332.236C970.815 336.779 966.892 340.474 963.004 343.32C959.153 346.164 954.933 348.344 950.416 349.82C945.899 351.3 940.975 352.038 935.606 352.038C928.534 352.038 921.98 350.523 915.945 347.53C909.91 344.538 904.653 340.29 900.247 334.712C895.84 329.169 892.509 322.63 890.213 315.129C887.955 307.629 886.807 299.502 886.807 290.783C886.807 272.31 891.324 257.901 900.357 247.593C909.392 237.285 921.314 232.113 936.05 232.113C944.604 232.113 951.785 233.591 957.636 236.509C963.485 239.428 969.224 243.935 974.778 250.03V206.399C974.778 200.339 975.999 195.759 978.406 192.655C980.85 189.551 984.293 188 988.774 188C993.253 188 996.697 189.441 999.139 192.285C1001.55 195.13 1002.77 199.342 1002.77 204.884V335.154C1002.77 340.77 1001.47 345.019 998.88 347.826C996.252 350.634 992.884 352.038 988.774 352.038C984.738 352.038 981.368 350.56 978.74 347.642C976.111 344.723 974.778 340.548 974.778 335.154ZM916.575 291.781C916.575 299.798 917.834 306.595 920.315 312.248C922.795 317.864 926.201 322.074 930.57 324.92C934.902 327.765 939.641 329.206 944.751 329.206C949.972 329.206 954.71 327.838 959.005 325.141C963.301 322.445 966.743 318.306 969.299 312.728C971.853 307.112 973.149 300.166 973.149 291.781C973.149 283.948 971.853 277.186 969.299 271.535C966.743 265.843 963.263 261.521 958.894 258.529C954.525 255.536 949.749 254.058 944.528 254.058C939.123 254.058 934.273 255.573 930.015 258.64C925.756 261.706 922.463 266.102 920.092 271.829C917.759 277.593 916.575 284.243 916.575 291.781ZM1115.14 299.279H1057.2C1057.27 306.003 1058.64 311.915 1061.27 317.051C1063.9 322.185 1067.41 326.029 1071.78 328.615C1076.15 331.238 1081 332.531 1086.26 332.531C1089.81 332.531 1093.03 332.124 1095.96 331.275C1098.92 330.462 1101.74 329.169 1104.48 327.396C1107.25 325.622 1109.77 323.739 1112.07 321.706C1114.4 319.674 1117.4 316.94 1121.1 313.467C1122.62 312.174 1124.77 311.508 1127.58 311.508C1130.62 311.508 1133.1 312.359 1134.98 314.021C1136.83 315.646 1137.8 318.012 1137.8 321.04C1137.8 323.7 1136.72 326.804 1134.65 330.388C1132.54 333.935 1129.39 337.372 1125.14 340.623C1120.92 343.911 1115.62 346.645 1109.21 348.787C1102.81 350.967 1095.44 352.038 1087.15 352.038C1068.12 352.038 1053.34 346.606 1042.79 335.782C1032.24 324.958 1026.98 310.289 1026.98 291.744C1026.98 283.024 1028.28 274.896 1030.87 267.432C1033.46 259.969 1037.28 253.579 1042.24 248.222C1047.24 242.902 1053.38 238.799 1060.68 235.955C1067.97 233.111 1076.08 231.669 1084.96 231.669C1096.55 231.669 1106.47 234.108 1114.73 238.985C1123.03 243.861 1129.21 250.142 1133.35 257.901C1137.47 265.623 1139.54 273.492 1139.54 281.509C1139.54 288.935 1137.39 293.775 1133.13 295.991C1128.87 298.171 1122.88 299.279 1115.14 299.279ZM1057.2 282.433H1110.88C1110.18 272.347 1107.44 264.81 1102.7 259.785C1097.96 254.798 1091.74 252.285 1084 252.285C1076.6 252.285 1070.56 254.834 1065.82 259.897C1061.08 264.994 1058.19 272.494 1057.2 282.433ZM1193.85 309.404V334.083C1193.85 340.069 1192.45 344.538 1189.63 347.53C1186.82 350.523 1183.26 352.038 1178.93 352.038C1174.68 352.038 1171.16 350.523 1168.42 347.493C1165.68 344.463 1164.31 339.994 1164.31 334.083V251.805C1164.31 238.541 1169.12 231.892 1178.71 231.892C1183.6 231.892 1187.15 233.442 1189.3 236.546C1191.48 239.649 1192.67 244.268 1192.89 250.326C1196.41 244.268 1200.04 239.649 1203.78 236.546C1207.52 233.442 1212.48 231.892 1218.7 231.892C1224.92 231.892 1230.95 233.442 1236.8 236.546C1242.65 239.649 1245.58 243.788 1245.58 248.923C1245.58 252.543 1244.36 255.499 1241.84 257.863C1239.36 260.228 1236.65 261.374 1233.77 261.374C1232.69 261.374 1230.06 260.709 1225.92 259.378C1221.73 258.049 1218.07 257.384 1214.88 257.384C1210.55 257.384 1207.03 258.529 1204.26 260.783C1201.52 263.073 1199.37 266.436 1197.85 270.905C1196.33 275.375 1195.3 280.695 1194.71 286.866C1194.15 293.036 1193.85 300.536 1193.85 309.404ZM1338.92 299.279H1280.97C1281.05 306.003 1282.42 311.915 1285.05 317.051C1287.67 322.185 1291.19 326.029 1295.56 328.615C1299.93 331.238 1304.78 332.531 1310.04 332.531C1313.59 332.531 1316.81 332.124 1319.74 331.275C1322.7 330.462 1325.51 329.169 1328.25 327.396C1331.03 325.622 1333.55 323.739 1335.84 321.706C1338.18 319.674 1341.18 316.94 1344.88 313.467C1346.4 312.174 1348.54 311.508 1351.36 311.508C1354.39 311.508 1356.87 312.359 1358.76 314.021C1360.61 315.646 1361.58 318.012 1361.58 321.04C1361.58 323.7 1360.5 326.804 1358.43 330.388C1356.32 333.935 1353.17 337.372 1348.91 340.623C1344.69 343.911 1339.4 346.645 1332.99 348.787C1326.59 350.967 1319.22 352.038 1310.93 352.038C1291.9 352.038 1277.12 346.606 1266.57 335.782C1256.02 324.958 1250.76 310.289 1250.76 291.744C1250.76 283.024 1252.06 274.896 1254.65 267.432C1257.24 259.969 1261.05 253.579 1266.02 248.222C1271.01 242.902 1277.16 238.799 1284.45 235.955C1291.75 233.111 1299.86 231.669 1308.74 231.669C1320.33 231.669 1330.25 234.108 1338.51 238.985C1346.8 243.861 1352.99 250.142 1357.13 257.901C1361.24 265.623 1363.32 273.492 1363.32 281.509C1363.32 288.935 1361.17 293.775 1356.91 295.991C1352.65 298.171 1346.66 299.279 1338.92 299.279ZM1280.97 282.433H1334.66C1333.96 272.347 1331.22 264.81 1326.48 259.785C1321.74 254.798 1315.52 252.285 1307.78 252.285C1300.37 252.285 1294.34 254.834 1289.6 259.897C1284.86 264.994 1281.97 272.494 1280.97 282.433Z" fill="#296E72"/>
</svg>
